<?xml version="1.0" standalone="no"?>
<!DOCTYPE svg PUBLIC "-//W3C//DTD SVG 20010904//EN"
 "http://www.w3.org/TR/2001/REC-SVG-20010904/DTD/svg10.dtd">
<svg version="1.0" xmlns="http://www.w3.org/2000/svg"
 width="623.000000pt" height="623.000000pt" viewBox="0 0 623.000000 623.000000"
 preserveAspectRatio="xMidYMid meet">
<metadata>
Created by potrace 1.15, written by Peter Selinger 2001-2017
</metadata>
<g transform="translate(0.000000,623.000000) scale(0.100000,-0.100000)"
fill="#000000" stroke="none">
<path d="M490 6130 c0 -5 -18 -10 -40 -10 -22 0 -40 -4 -40 -10 0 -5 -9 -10
-20 -10 -11 0 -20 -4 -20 -10 0 -5 -9 -10 -20 -10 -11 0 -20 -4 -20 -10 0 -5
-7 -10 -15 -10 -19 0 -145 -126 -145 -146 0 -7 -4 -14 -10 -14 -5 0 -10 -9
-10 -20 0 -11 -4 -20 -10 -20 -5 0 -10 -13 -10 -30 0 -16 -5 -30 -10 -30 -7 0
-10 -949 -10 -2845 l0 -2845 2840 0 c1882 0 2841 3 2845 10 3 6 19 10 35 10
15 0 30 7 33 15 3 8 25 23 49 34 51 23 118 91 141 142 9 20 23 42 32 49 8 7
15 23 15 36 0 12 4 26 10 29 14 9 14 5365 0 5365 -5 0 -10 14 -10 30 0 17 -4
30 -10 30 -5 0 -10 9 -10 20 0 11 -4 20 -10 20 -5 0 -10 7 -10 15 0 20 -125
145 -145 145 -8 0 -15 5 -15 10 0 6 -9 10 -20 10 -11 0 -20 5 -20 10 0 6 -9
10 -20 10 -11 0 -20 5 -20 10 0 6 -13 10 -30 10 -16 0 -30 5 -30 10 0 7 -885
10 -2635 10 -1750 0 -2635 -3 -2635 -10z m5275 -210 c72 -35 138 -105 164
-174 l21 -57 -2 -2592 -3 -2592 -24 -45 c-32 -61 -86 -116 -146 -148 l-50 -27
-2605 0 -2605 0 -43 23 c-66 35 -119 88 -149 150 l-28 57 -3 2575 c-2 1829 1
2588 8 2619 24 97 125 202 220 229 23 7 929 10 2615 9 l2580 -2 50 -25z"/>
<path d="M792 5739 c-58 -11 -137 -56 -174 -98 -17 -19 -43 -60 -57 -91 l-26
-55 -3 -1437 -2 -1438 429 0 c395 0 489 6 414 25 -15 3 -60 22 -100 40 -254
117 -457 347 -549 622 -101 302 -97 729 10 1042 64 185 211 381 385 511 113
85 299 156 473 181 107 15 329 15 436 0 297 -43 548 -190 722 -422 98 -131
159 -275 202 -474 19 -85 22 -133 23 -325 0 -232 -6 -292 -47 -444 l-22 -78
-62 -40 c-78 -49 -164 -140 -198 -210 -26 -55 -56 -157 -56 -193 0 -41 -217
-175 -355 -218 -75 -24 -172 -44 -247 -52 -38 -4 -68 -11 -68 -15 0 -4 15 -13
33 -21 17 -7 58 -30 89 -51 231 -154 315 -525 182 -798 -66 -133 -215 -257
-361 -301 -24 -7 -43 -14 -43 -15 0 -2 39 -41 86 -86 48 -46 116 -125 152
-177 67 -96 360 -559 387 -612 l16 -29 874 0 c481 0 875 2 875 5 0 3 -18 21
-40 41 -44 40 -94 136 -105 199 -9 58 11 72 111 81 90 7 95 5 113 -63 19 -69
48 -95 113 -101 103 -8 170 48 203 173 10 36 16 67 14 70 -3 2 -29 -8 -59 -23
-48 -24 -67 -27 -150 -27 -85 0 -101 3 -153 29 -194 99 -270 355 -169 569 37
79 100 141 182 181 60 29 73 31 165 30 80 0 110 -5 148 -22 l47 -21 0 289 0
290 -294 0 c-258 0 -297 2 -311 16 -14 14 -15 42 -13 208 2 105 5 197 8 205 3
9 -13 19 -50 32 -75 27 -208 93 -258 130 -36 26 -42 36 -42 68 0 51 -25 141
-57 209 -39 80 -150 190 -235 231 -62 31 -68 37 -82 80 -68 213 -75 592 -15
848 88 373 349 674 679 781 240 79 537 88 785 26 359 -90 636 -350 753 -709
53 -160 67 -266 66 -500 0 -187 -3 -223 -26 -330 -54 -256 -135 -412 -298
-576 -115 -116 -207 -179 -339 -233 -44 -18 -78 -36 -74 -40 3 -3 208 -6 455
-6 l448 0 0 1418 c0 1153 -3 1426 -14 1467 -26 99 -85 167 -186 214 l-55 26
-2320 1 c-1276 1 -2339 -2 -2363 -7z m1808 -3736 l-1 -228 -25 30 c-71 85
-129 232 -140 356 l-7 69 87 0 86 0 0 -227z m300 -99 l0 -326 -27 6 c-16 4
-57 24 -93 44 l-65 37 -3 283 -2 282 95 0 95 0 0 -326z m318 -16 l-3 -343
-100 0 -100 0 -3 343 -2 342 105 0 105 0 -2 -342z m302 62 l0 -280 -42 -26
c-23 -15 -66 -38 -95 -50 l-53 -24 0 330 0 330 95 0 95 0 0 -280z m276 210
c-11 -126 -81 -298 -147 -365 -19 -19 -19 -17 -19 208 l0 227 86 0 87 0 -7
-70z m-871 -924 c30 -14 80 -55 124 -100 l75 -75 92 89 c101 97 127 110 230
110 112 0 216 -77 245 -183 14 -54 7 -153 -16 -197 -61 -121 -190 -175 -321
-134 -50 15 -73 31 -144 101 l-86 83 -74 -76 c-113 -113 -208 -145 -323 -109
-112 35 -167 109 -175 235 -4 63 -1 85 18 128 25 59 95 127 144 141 63 18 158
12 211 -13z"/>
<path d="M2744 1141 c-83 -51 -85 -224 -2 -284 35 -26 101 -26 136 0 61 44 80
148 43 230 -32 69 -112 94 -177 54z"/>
<path d="M3378 1144 c-40 -21 -68 -82 -68 -146 0 -95 53 -161 129 -161 75 0
119 47 128 137 14 137 -86 226 -189 170z"/>
<path d="M1670 4544 c-201 -43 -348 -196 -412 -429 -20 -71 -22 -105 -22 -295
0 -190 2 -224 22 -295 47 -172 146 -310 274 -383 157 -90 390 -94 551 -10 78
41 182 144 224 223 17 33 44 101 59 150 27 87 28 97 28 315 0 251 -11 315 -76
448 -110 224 -373 336 -648 276z m496 -160 c30 -18 60 -48 79 -78 26 -43 30
-59 30 -121 0 -62 -4 -78 -30 -121 -41 -65 -108 -107 -183 -112 -48 -3 -66 1
-112 25 -171 89 -171 327 0 416 73 38 145 35 216 -9z"/>
<path d="M4260 4544 c-217 -47 -369 -215 -422 -469 -29 -141 -29 -381 1 -514
65 -292 256 -471 522 -488 302 -20 522 149 601 462 20 80 23 113 22 295 -1
177 -4 216 -22 285 -65 239 -207 386 -417 430 -86 18 -199 18 -285 -1z m506
-160 c30 -18 60 -48 79 -78 26 -43 30 -59 30 -121 0 -62 -4 -78 -30 -121 -41
-65 -108 -107 -183 -112 -48 -3 -66 1 -112 25 -171 89 -171 327 0 416 73 38
145 35 216 -9z"/>
<path d="M530 1530 l0 -1050 210 0 210 0 0 442 0 441 123 -6 c143 -7 179 -16
243 -60 68 -45 114 -106 370 -484 l225 -333 250 0 c197 0 249 3 243 12 -62
104 -323 517 -372 588 -77 111 -192 229 -279 285 l-62 40 90 22 c224 55 363
171 430 359 29 83 37 255 15 348 -35 149 -138 292 -255 354 -143 77 -305 92
-970 92 l-471 0 0 -1050z m1107 675 c134 -40 202 -181 158 -331 -13 -44 -28
-69 -61 -101 -72 -70 -101 -75 -466 -80 l-318 -5 0 272 0 273 320 -7 c230 -5
333 -11 367 -21z"/>
<path d="M1000 1959 l0 -221 303 4 c293 4 303 4 350 27 31 15 59 39 75 64 24
36 27 50 27 127 0 77 -3 91 -27 127 -52 79 -119 92 -485 93 l-243 0 0 -221z"/>
<path d="M4060 2405 l0 -175 310 0 310 0 0 -327 0 -326 49 -52 c93 -98 120
-183 128 -401 10 -273 -35 -455 -138 -563 -22 -22 -39 -49 -39 -61 0 -19 5
-20 210 -20 161 0 210 3 210 13 0 6 -21 32 -46 57 -98 98 -137 229 -138 465
-1 246 43 405 143 517 l41 46 0 326 0 326 310 0 310 0 0 175 0 175 -830 0
-830 0 0 -175z"/>
<path d="M5150 1894 l0 -286 23 7 c101 32 128 36 207 33 145 -7 242 -69 301
-193 36 -78 44 -124 26 -149 -12 -16 -30 -20 -101 -24 -97 -5 -111 1 -120 53
-14 74 -93 125 -169 111 -40 -8 -99 -61 -127 -116 -18 -36 -42 -121 -36 -127
2 -2 27 8 57 21 116 53 246 43 351 -27 64 -43 121 -109 138 -163 6 -19 16 -34
21 -34 5 0 9 236 9 590 l0 590 -290 0 -290 0 0 -286z"/>
<path d="M4390 1434 c-70 -30 -109 -92 -117 -185 -5 -49 -2 -67 21 -113 21
-43 36 -59 70 -75 114 -56 225 2 245 129 18 110 -18 203 -93 239 -50 25 -78
26 -126 5z"/>
<path d="M1000 897 l0 -417 426 0 c337 0 424 3 418 13 -4 6 -66 100 -138 207
-298 449 -375 547 -454 582 -29 13 -76 21 -147 25 l-105 6 0 -416z"/>
<path d="M5260 1028 c-62 -32 -92 -88 -92 -172 1 -131 70 -216 175 -216 112 0
186 128 156 269 -25 120 -132 173 -239 119z"/>
</g>
</svg>
